<svg xmlns="http://www.w3.org/2000/svg" fill="none" viewBox="0 0 165 46"><path fill="#fff" d="M14.48 11.114a1.127 1.127 0 0 1 1.114-.952h9.822c1.785 0 3.49.122 4.81.805.019-4.978-4.409-8.66-9.537-8.632H8.809A1.213 1.213 0 0 0 7.663 3.37L2.717 34.661a.987.987 0 0 0 .966 1.183h6.88l3.916-24.73z"/><path fill="#fff" d="M14.834 22.7l1.484-9.388c.082-.502.36-.994 1.004-.994h8.286c1.576.013 3.236.155 4.463.798a11.37 11.37 0 0 1-.094 1.29 9.799 9.799 0 0 1-9.675 8.295h-5.468z"/><path fill="#fff" d="M32.094 14.247c-.012.408-.047.815-.107 1.218a11.16 11.16 0 0 1-11.015 9.39H15.55a1.228 1.228 0 0 0-1.215 1.038l-2.637 16.63a1.003 1.003 0 0 0 .986 1.152h5.808a1.233 1.233 0 0 0 1.211-1.015l1.438-9.014a1.127 1.127 0 0 1 1.114-.954h3.454a11.16 11.16 0 0 0 11.015-9.39c.603-3.836-1.328-7.325-4.63-9.055zM60.93 27.538a9.822 9.822 0 0 0 9.705-8.315c.757-4.824-3.012-9.035-8.353-9.035H53.67a.67.67 0 0 0-.67.569l-3.848 24.358a.626.626 0 0 0 .615.721h4.557a.67.67 0 0 0 .67-.569l1.129-7.153a.67.67 0 0 1 .669-.57l4.138-.006zm3.812-8.534c-.281 1.784-1.66 3.098-4.299 3.098h-3.361l1.024-6.488h3.313c2.719.005 3.607 1.615 3.326 3.395l-.003-.005zm25.625-1.146h-4.324a.67.67 0 0 0-.67.569l-.142.897s-3.356-3.666-9.298-1.19c-3.409 1.42-5.045 4.35-5.741 6.497 0 0-2.21 6.526 2.788 10.119 0 0 4.635 3.454 9.854-.214l-.09.572a.624.624 0 0 0 .615.721h4.327a.67.67 0 0 0 .67-.569l2.632-16.68a.623.623 0 0 0-.621-.722zm-6.359 9.22a4.853 4.853 0 0 1-4.852 4.153c-.46.005-.92-.062-1.359-.2-1.866-.598-2.93-2.39-2.624-4.333a4.853 4.853 0 0 1 4.853-4.155c.46-.005.919.063 1.359.201 1.875.596 2.934 2.39 2.637 4.334h-.014zm39.198.46a9.821 9.821 0 0 0 9.696-8.315c.757-4.824-3.012-9.035-8.354-9.035h-8.608a.67.67 0 0 0-.669.569l-3.849 24.358a.632.632 0 0 0 .142.502.628.628 0 0 0 .474.219h4.555a.67.67 0 0 0 .669-.569l1.128-7.153a.668.668 0 0 1 .669-.57l4.147-.006zm3.811-8.534c-.281 1.784-1.66 3.098-4.298 3.098h-3.374l1.023-6.488h3.311c2.731.005 3.619 1.615 3.347 3.395l-.009-.005zm25.62-1.146h-4.324a.67.67 0 0 0-.669.569l-.14.897s-3.357-3.666-9.301-1.19c-3.407 1.42-5.045 4.35-5.739 6.497 0 0-2.212 6.526 2.788 10.119 0 0 4.633 3.454 9.852-.214l-.09.572a.616.616 0 0 0 .142.502.617.617 0 0 0 .473.22h4.321a.67.67 0 0 0 .669-.57l2.631-16.68a.629.629 0 0 0-.353-.663.624.624 0 0 0-.26-.059zm-6.358 9.22a4.846 4.846 0 0 1-4.853 4.153 4.39 4.39 0 0 1-1.349-.194c-1.865-.6-2.93-2.391-2.623-4.334a4.85 4.85 0 0 1 4.852-4.155 4.41 4.41 0 0 1 1.359.201c1.867.59 2.925 2.385 2.619 4.329h-.005zm-40.039-8.807l-5.213 8.799-2.645-8.733a.67.67 0 0 0-.646-.479h-4.704a.501.501 0 0 0-.48.67l4.74 14.711-4.287 6.933a.502.502 0 0 0 .43.77h5.066a.837.837 0 0 0 .72-.406l13.247-21.912a.506.506 0 0 0 .01-.51.499.499 0 0 0-.442-.256h-5.065a.833.833 0 0 0-.731.413zm51.262-7.521l-3.849 24.358a.615.615 0 0 0 .143.502.625.625 0 0 0 .473.22h4.556a.668.668 0 0 0 .67-.57l3.848-24.358a.616.616 0 0 0-.142-.502.617.617 0 0 0-.474-.22h-4.554a.668.668 0 0 0-.671.57z"/></svg>